# xmcd CD database file
#
# Track frame offsets:
#	187
#	19577
#	40245
#	61265
#	75927
#	106930
#	128350
#
# Disc length: 2048 seconds
#
# Revision: 0
# Processed by: cddbd v1.5.1PL0 Copyright (c) Steve Scherf et al.
# Submitted via: CDex 1.51
#
DISCID=4207fe07
DTITLE=Willis Jackson - Smoking With Willis
DYEAR=1900
DGENRE=Jazz
TTITLE0=Doin' The Mudcat
TTITLE1=And I Love Her
TTITLE2=Goose Pimples
TTITLE3=Yesterday
TTITLE4=Broadway
TTITLE5=Who Can I Turn To (When Nobody Needs Me)
TTITLE6=A Hard Day's Night
EXTD=
EXTT0=
EXTT1=
EXTT2=
EXTT3=
EXTT4=
EXTT5=
EXTT6=
PLAYORDER=
